HIERARCHY
ROOT Hips
{
	OFFSET 0.0000 0.0000 0.0000
	CHANNELS 6 Xposition Yposition Zposition Zrotation Xrotation Yrotation
	JOINT Ab
	{
		OFFSET -0.0000 8.0846 -0.0000
		CHANNELS 3 Zrotation Xrotation Yrotation
		JOINT Chest
		{
			OFFSET -0.0000 25.0068 -0.0000
			CHANNELS 3 Zrotation Xrotation Yrotation
			JOINT Neck
			{
				OFFSET -0.0000 25.0068 0.0000
				CHANNELS 3 Zrotation Xrotation Yrotation
				JOINT Head
				{
					OFFSET -0.0000 10.7556 0.0000
					CHANNELS 3 Zrotation Xrotation Yrotation
					End Site
					{
						OFFSET -0.0000 16.6222 0.0000
					}
				}
			}
			JOINT LeftCollar
			{
				OFFSET -0.0000 25.0068 0.0000
				CHANNELS 3 Zrotation Xrotation Yrotation
				JOINT LeftShoulder
				{
					OFFSET 19.5556 -0.0000 0.0000
					CHANNELS 3 Zrotation Xrotation Yrotation
					JOINT LeftElbow
					{
						OFFSET 27.1828 0.0000 0.0000
						CHANNELS 3 Zrotation Xrotation Yrotation
						JOINT LeftWrist
						{
							OFFSET 23.3157 0.0000 0.0000
							CHANNELS 3 Zrotation Xrotation Yrotation
							End Site
							{
								OFFSET 0.0000 -14.6667 0.0000
							}
						}
					}
				}
			}
			JOINT RightCollar
			{
				OFFSET -0.0000 25.0068 0.0000
				CHANNELS 3 Zrotation Xrotation Yrotation
				JOINT RightShoulder
				{
					OFFSET -19.5556 0.0000 0.0000
					CHANNELS 3 Zrotation Xrotation Yrotation
					JOINT RightElbow
					{
						OFFSET -27.1828 0.0000 0.0000
						CHANNELS 3 Zrotation Xrotation Yrotation
						JOINT RightWrist
						{
							OFFSET -23.3157 0.0000 0.0000
							CHANNELS 3 Zrotation Xrotation Yrotation
							End Site
							{
								OFFSET -0.0000 -14.6667 0.0000
							}
						}
					}
				}
			}
		}
	}
	JOINT LeftHip
	{
		OFFSET 11.7333 0.0000 0.0000
		CHANNELS 3 Zrotation Xrotation Yrotation
		JOINT LeftKnee
		{
			OFFSET -0.0000 -40.8688 0.0000
			CHANNELS 3 Zrotation Xrotation Yrotation
			JOINT LeftAnkle
			{
				OFFSET -0.0000 -44.4337 0.0000
				CHANNELS 3 Zrotation Xrotation Yrotation
				End Site
				{
					OFFSET -0.0000 -4.8889 16.6222
				}
			}
		}
	}
	JOINT RightHip
	{
		OFFSET -11.7333 0.0000 0.0000
		CHANNELS 3 Zrotation Xrotation Yrotation
		JOINT RightKnee
		{
			OFFSET -0.0000 -40.8688 0.0000
			CHANNELS 3 Zrotation Xrotation Yrotation
			JOINT RightAnkle
			{
				OFFSET -0.0000 -44.4337 0.0000
				CHANNELS 3 Zrotation Xrotation Yrotation
				End Site
				{
					OFFSET -0.0000 -4.8889 16.6222
				}
			}
		}
	}
}
MOTION
Frames: 14
Frame Time: 0.010000
-3.1539 88.7194 188.0150 2.4845 0.7474 175.4366 0.9555 359.9678 358.7960 359.5861 11.9533 358.8390 2.7718 348.6116 1.3491 0.5314 11.6069 1.0215 338.5258 358.5366 7.6915 300.8489 31.0799 354.4271 16.3170 354.4639 322.7497 81.9823 1.3378 341.1207 22.2565 359.2645 356.1861 58.5592 44.3159 9.9210 337.8010 354.3088 28.4381 277.3302 353.2398 19.1682 1.5546 357.9744 356.3680 358.6994 11.3970 358.9420 359.5086 352.3789 21.9182 1.4814 351.7095 359.7022 358.7697 19.9648 9.1867 356.9698 345.5784 338.0875 
-3.1648 88.7216 188.0089 2.4849 0.7438 175.4567 0.9271 359.9913 358.8002 359.6082 11.9681 358.8408 2.8024 348.5731 1.3275 0.4922 11.6200 1.0079 338.5296 358.5303 7.7222 300.8629 31.2306 354.3804 16.3978 354.4406 322.7796 81.9625 1.3080 341.2174 22.2390 359.2432 356.1691 58.5241 44.3592 9.9727 337.7308 354.2797 28.4534 277.4109 353.1114 19.1147 1.5554 357.9657 356.3433 358.6824 11.4030 358.9533 359.2700 352.3498 21.8727 1.4704 351.7157 359.7075 358.7769 19.9582 9.1797 356.9539 345.5881 338.0793 
-3.1789 88.7238 187.9981 2.4805 0.7510 175.4754 0.9071 0.0202 358.7953 359.6140 11.9841 358.8378 2.7935 348.5508 1.3068 0.5085 11.6263 0.9823 338.5298 358.5393 7.7431 300.8810 31.3441 354.3437 16.3934 354.4460 322.8430 82.2857 1.1832 341.4499 22.2434 359.2490 356.1592 58.4376 44.3666 10.0382 337.7060 354.2899 28.2634 277.4385 352.4902 18.6563 1.5415 357.9661 356.3442 358.6790 11.4216 358.9472 359.4845 352.3618 21.8980 1.4511 351.7417 359.7164 358.7844 19.9394 9.1721 357.0251 345.5315 338.0692 
-3.1929 88.7266 187.9909 2.4805 0.7464 175.4886 0.8808 0.0440 358.8006 359.6361 11.9950 358.8400 2.7936 348.5386 1.2972 0.5243 11.6101 0.9691 338.5265 358.5401 7.7279 300.8490 31.2314 354.3589 16.3791 354.4392 322.7421 82.0682 1.2931 341.2951 22.2355 359.2333 356.1653 58.3992 44.3897 10.0632 337.7248 354.3182 28.3696 277.3721 352.6370 18.9247 1.5392 357.9564 356.3248 358.6637 11.4354 358.9341 359.6050 352.3813 21.9346 1.4401 351.7578 359.7494 358.7978 19.9136 9.1090 357.2053 345.4222 338.0274 
-3.2105 88.7293 187.9839 2.4753 0.7414 175.5020 0.8324 0.0468 358.8089 359.7200 12.0850 358.8398 2.6865 348.4139 1.2679 0.5922 11.6505 0.9423 338.5459 358.5183 7.7435 300.7833 31.2482 354.3117 16.4252 354.4298 322.6930 81.9818 1.3068 341.2604 22.1565 359.2348 356.1192 58.2846 44.4248 10.2325 337.9819 354.3740 28.6063 276.9898 353.2005 19.9666 1.5253 357.9443 356.3266 358.6568 11.4533 358.9316 359.5426 352.3450 21.9140 1.4170 351.7672 359.7836 358.8242 19.8979 9.0406 357.0307 345.5212 338.1357 
-3.2295 88.7317 187.9737 2.4726 0.7416 175.5211 0.7956 0.0630 358.8169 359.7634 12.1409 358.8435 2.6432 348.3333 1.2457 0.6187 11.6742 0.9003 338.5567 358.5242 7.7457 300.7576 31.2567 354.2862 16.3978 354.4515 322.6888 82.0174 1.2756 341.2372 22.1158 359.2443 356.0870 58.1979 44.4431 10.3504 338.0094 354.3354 28.6686 277.0274 353.2404 20.0249 1.5119 357.9371 356.3497 358.6545 11.4717 358.9008 359.5756 352.3411 21.9135 1.3940 351.7865 359.8138 358.8447 19.8787 9.0055 357.0505 345.5095 338.1464 
-3.2523 88.7341 187.9693 2.4687 0.7200 175.5391 0.7800 0.0819 358.8227 359.7567 12.1431 358.8510 2.6467 348.3178 1.2090 0.6338 11.6647 0.8829 338.5648 358.5277 7.7539 300.7631 31.3508 354.2666 16.5061 354.3865 322.5728 81.9463 1.5027 341.5761 22.1122 359.2437 356.0766 58.1561 44.4678 10.3986 337.9934 354.3008 28.7283 277.0484 353.2663 20.0610 1.4965 357.9042 356.3500 358.6530 11.4913 358.8750 359.5654 352.3146 21.9395 1.3685 351.7749 359.8407 358.8662 19.8685 8.9604 357.0220 345.5173 338.1437 
-3.2766 88.7369 187.9658 2.4659 0.6918 175.5597 0.7600 0.0967 358.8305 359.7600 12.1444 358.8578 2.6302 348.3079 1.1738 0.6755 11.6521 0.8551 338.5703 358.5263 7.7365 300.7442 31.3292 354.2770 16.5617 354.3358 322.3935 81.8927 1.7908 341.8850 22.1052 359.2299 356.0639 58.1083 44.5041 10.4420 337.9667 354.2742 28.7892 277.0870 353.2833 20.0533 1.4837 357.8632 356.3334 358.6436 11.5101 358.8842 359.3449 352.2528 21.9138 1.3439 351.7590 359.8601 358.8849 19.8543 8.9102 357.0296 345.5150 338.1614 
-3.3045 88.7387 187.9568 2.4627 0.6761 175.5886 0.7470 0.1231 358.8290 359.7566 12.1402 358.8568 2.6007 348.3102 1.1321 0.7163 11.6287 0.8350 338.5714 358.5308 7.7267 300.7294 31.3278 354.2868 16.5391 354.3411 322.3885 81.9696 1.7536 341.8912 22.1012 359.2208 356.0531 58.0518 44.5226 10.4751 337.9518 354.2761 28.8340 277.2187 353.1167 20.0150 1.4691 357.8416 356.2867 358.6251 11.5206 358.9025 359.2226 352.2314 21.8666 1.3112 351.7662 359.8892 358.9069 19.8455 8.8546 357.0871 345.4926 338.2071 
-3.3356 88.7392 187.9479 2.4597 0.6513 175.6281 0.7521 0.1411 358.8198 359.7273 12.1310 358.8504 2.5891 348.3192 1.1087 0.7372 11.6087 0.8166 338.5838 358.5247 7.7171 300.6965 31.3195 354.3103 16.5377 354.3294 322.3625 82.0755 1.7303 341.8982 22.1063 359.2173 356.0514 57.9983 44.5212 10.4909 337.9546 354.2646 28.8877 277.4274 352.8419 19.9823 1.4514 357.7989 356.2591 358.6127 11.5531 358.8682 359.3822 352.2359 21.9271 1.2737 351.7659 359.9117 358.9381 19.8354 8.8587 357.0706 345.4970 338.1686 
-3.3679 88.7409 187.9412 2.4555 0.6092 175.6800 0.7487 0.1334 358.8045 359.7088 12.1385 358.8376 2.5747 348.3309 1.0961 0.7711 11.5727 0.7810 338.5929 358.5436 7.6726 300.6525 31.1160 354.3502 16.3827 354.3941 322.3045 82.1821 1.7305 341.7178 22.1115 359.2196 356.0550 57.9331 44.4873 10.4980 337.9605 354.2475 29.0561 277.4982 352.9007 19.9553 1.4297 357.7282 356.2177 358.6044 11.5995 358.8751 359.5548 352.2603 21.9324 1.2376 351.7514 359.9131 358.9629 19.8122 8.9441 357.0689 345.4921 338.0537 
-3.4044 88.7419 187.9314 2.4599 0.5891 175.6886 0.7361 0.1498 358.8167 359.7101 12.1527 358.8498 2.5655 348.3215 1.0984 0.7998 11.5642 0.7764 338.5816 358.5254 7.7368 300.6889 31.3177 354.2860 16.5159 354.3166 322.3292 82.1256 1.6959 341.8217 22.0868 359.2290 356.0704 57.8496 44.6334 10.6074 337.8760 354.2133 29.0088 277.5902 352.8972 19.7967 1.4166 357.7063 356.2174 358.5912 11.6225 358.8709 359.2825 352.1894 21.9073 1.2074 351.7521 359.9770 359.0006 19.7865 8.8711 357.0814 345.4810 338.0789 
-3.4436 88.7436 187.9166 2.4645 0.5858 175.6929 0.7374 0.2013 358.8188 359.6899 12.1225 358.8536 2.5657 348.3383 1.0948 0.8029 11.5633 0.7613 338.5688 358.5141 7.7982 300.7340 31.5708 354.2444 16.6303 354.2717 322.4304 82.1238 1.6221 341.9672 22.0928 359.2498 356.0800 57.7835 44.6410 10.6395 337.9175 354.2121 29.1367 277.2131 353.3683 19.8365 1.3975 357.6992 356.2190 358.5866 11.6431 358.8330 359.3249 352.1582 21.9446 1.1773 351.7745 0.0165 359.0246 19.7531 8.7765 357.1404 345.4511 338.1581 
-3.4854 88.7459 187.9038 2.4609 0.5622 175.7057 0.7457 0.2303 358.8135 359.6510 12.1087 358.8532 2.5584 348.3258 1.0868 0.7930 11.5678 0.7658 338.5674 358.5441 7.8429 300.7680 31.6870 354.1851 16.4584 354.4046 322.5816 83.2100 1.3434 342.4167 22.1000 359.2150 356.0878 57.7417 44.6725 10.6454 337.8501 354.1387 29.2587 277.2132 353.4831 19.8471 1.3744 357.6620 356.1760 358.5607 11.6808 358.8560 359.2942 352.1079 21.9499 1.1376 351.7820 0.0718 359.0583 19.7135 8.7001 357.1543 345.4509 338.1817 
